<svg width="18" height="18" viewBox="0 0 18 18" fill="none" xmlns="http://www.w3.org/2000/svg">
<path fill-rule="evenodd" clip-rule="evenodd" d="M12.4286 13.2694C11.1417 14.4139 9.57196 15 7.71427 15C3.69048 15 0.428558 11.7381 0.428558 7.71427C0.428558 3.69048 3.69048 0.428558 7.71427 0.428558C11.7381 0.428558 15 3.69048 15 7.71427C15 9.57196 14.4139 11.1417 13.2694 12.4286L17.9925 17.1517L17.1517 17.9925L12.4286 13.2694ZM13.7143 8.14284C13.7143 11.6932 10.8361 13.7143 7.2857 13.7143C3.73529 13.7143 1.71427 11.2647 1.71427 7.71427C1.71427 4.16387 4.16386 1.71427 7.71427 1.71427C11.2647 1.71427 13.7143 4.59244 13.7143 8.14284Z" fill="#A6A6A6"/>
</svg>
